<svg xmlns="http://www.w3.org/2000/svg" width="200" height="70" viewBox="0 0 200 70"><g fill="#3B0083" transform="translate(0 -1)"><path d="M36.737 8.091c-.013 0-7.023.008-15.867.008-9.069 0-19.976-.008-19.976-.008A.911.911 0 000 8.996l.002 14.573a.902.902 0 00.9.895h4.817a.34.34 0 01.341.341l.001 43.92c0 .495.4.897.894.901h29.859c16.978 0 30.848-13.758 30.848-30.735 0-17.266-13.87-30.8-30.925-30.8zm-.834 45.198H23.34a.341.341 0 01-.341-.34V24.913c0-.188.153-.317.341-.317h12.564c7.818.126 14.119 6.492 14.119 14.341-.001 7.847-6.302 14.226-14.12 14.352zm51.103-29.976a1.117 1.117 0 00-.154-.011H71.725a.902.902 0 00-.9.896h-.001v44.536a.9.9 0 00.887.891h15.165a.9.9 0 00.887-.9v-44.53a.901.901 0 00-.757-.882z"/><circle cx="79.309" cy="10.516" r="9.517"/><path d="M142.679 23.302h-15.121a.9.9 0 00-.892.885v1.986c-3.659-2.591-8.061-4.107-12.8-4.107-12.698 0-22.991 10.858-22.991 24.253 0 13.394 10.293 24.252 22.991 24.252 4.739 0 9.141-1.515 12.8-4.107v2.235l.001.027a.9.9 0 00.888.899h15.13c.491-.007.889-.433.889-.926V48.416h-6.737v-3.713h6.737V24.202a.902.902 0 00-.895-.9zm-27.201 34.177c-6.132 0-11.103-4.971-11.103-11.103s4.971-11.102 11.103-11.102 11.102 4.971 11.102 11.102c.001 6.133-4.97 11.103-11.102 11.103zm83.488-4.628a19.465 19.465 0 01-.788-.041c-7.019-.487-9.801-4.165-11.812-9.512-.03-.098.012-.18.094-.235l13.123-8.306A.896.896 0 00200 34l-.001-17.01c0-.496-.4-.897-.895-.901l-15.15-.001a.901.901 0 00-.894.894l-.001 8.685a.899.899 0 01-.417.758l-18.226 10.793a.125.125 0 01-.063.018.126.126 0 01-.126-.126V8.979a.9.9 0 00-.893-.887h-15.147a.9.9 0 00-.884.893v35.719h6.72v3.713h-6.72v20.309a.9.9 0 00.895.9h15.131a.9.9 0 00.896-.89l.001-11.99c0-.319.167-.598.417-.758l6.223-3.686a.14.14 0 01.067-.018c.061 0 .108.038.133.093l.005.01c3.657 7.971 11.096 17.852 27.856 18.172.482 0 1.067-.503 1.071-.976L200 53.747c0-.484-.554-.876-1.034-.896z"/></g></svg>