<?xml version="1.0" encoding="UTF-8" standalone="no"?>
<svg
   width="70"
   height="70"
   viewBox="0 0 24.5 200"
   version="1.1"
   id="svg10"
   sodipodi:docname="diak-logo-1.svg"
   inkscape:version="1.1.1 (1:1.1+202109281949+c3084ef5ed)"
   xmlns:inkscape="http://www.inkscape.org/namespaces/inkscape"
   xmlns:sodipodi="http://sodipodi.sourceforge.net/DTD/sodipodi-0.dtd"
   xmlns="http://www.w3.org/2000/svg"
   xmlns:svg="http://www.w3.org/2000/svg">
  <defs
     id="defs14" />
  <sodipodi:namedview
     id="namedview12"
     pagecolor="#ffffff"
     bordercolor="#666666"
     borderopacity="1.0"
     inkscape:pageshadow="2"
     inkscape:pageopacity="0.0"
     inkscape:pagecheckerboard="0"
     showgrid="false"
     viewbox-height="200"
     viewbox-width="70"
     inkscape:zoom="2.3564334"
     inkscape:cx="101.84884"
     inkscape:cy="82.964366"
     inkscape:window-width="1560"
     inkscape:window-height="795"
     inkscape:window-x="104"
     inkscape:window-y="1240"
     inkscape:window-maximized="1"
     inkscape:current-layer="svg10" />
  <g
     fill="#3b0083"
     transform="matrix(0.94107697,0,0,0.94107697,-81.857697,66.323561)"
     id="g8">
    <path
       d="M 36.737,8.091 C 36.724,8.091 29.714,8.099 20.87,8.099 11.801,8.099 0.894,8.091 0.894,8.091 A 0.911,0.911 0 0 0 0,8.996 l 0.002,14.573 a 0.902,0.902 0 0 0 0.9,0.895 h 4.817 a 0.34,0.34 0 0 1 0.341,0.341 l 0.001,43.92 c 0,0.495 0.4,0.897 0.894,0.901 h 29.859 c 16.978,0 30.848,-13.758 30.848,-30.735 0,-17.266 -13.87,-30.8 -30.925,-30.8 z M 35.903,53.289 H 23.34 a 0.341,0.341 0 0 1 -0.341,-0.34 V 24.913 c 0,-0.188 0.153,-0.317 0.341,-0.317 h 12.564 c 7.818,0.126 14.119,6.492 14.119,14.341 -0.001,7.847 -6.302,14.226 -14.12,14.352 z M 87.006,23.313 A 1.117,1.117 0 0 0 86.852,23.302 H 71.725 a 0.902,0.902 0 0 0 -0.9,0.896 h -0.001 v 44.536 a 0.9,0.9 0 0 0 0.887,0.891 h 15.165 a 0.9,0.9 0 0 0 0.887,-0.9 v -44.53 a 0.901,0.901 0 0 0 -0.757,-0.882 z"
       id="path2" />
    <circle
       cx="79.308998"
       cy="10.516"
       r="9.5170002"
       id="circle4" />
    <path
       d="m 142.679,23.302 h -15.121 a 0.9,0.9 0 0 0 -0.892,0.885 v 1.986 c -3.659,-2.591 -8.061,-4.107 -12.8,-4.107 -12.698,0 -22.991,10.858 -22.991,24.253 0,13.394 10.293,24.252 22.991,24.252 4.739,0 9.141,-1.515 12.8,-4.107 v 2.235 l 0.001,0.027 a 0.9,0.9 0 0 0 0.888,0.899 h 15.13 c 0.491,-0.007 0.889,-0.433 0.889,-0.926 V 48.416 h -6.737 v -3.713 h 6.737 V 24.202 a 0.902,0.902 0 0 0 -0.895,-0.9 z m -27.201,34.177 c -6.132,0 -11.103,-4.971 -11.103,-11.103 0,-6.132 4.971,-11.102 11.103,-11.102 6.132,0 11.102,4.971 11.102,11.102 0.001,6.133 -4.97,11.103 -11.102,11.103 z m 83.488,-4.628 a 19.465,19.465 0 0 1 -0.788,-0.041 c -7.019,-0.487 -9.801,-4.165 -11.812,-9.512 -0.03,-0.098 0.012,-0.18 0.094,-0.235 l 13.123,-8.306 A 0.896,0.896 0 0 0 200,34 l -0.001,-17.01 c 0,-0.496 -0.4,-0.897 -0.895,-0.901 l -15.15,-10e-4 a 0.901,0.901 0 0 0 -0.894,0.894 l -0.001,8.685 a 0.899,0.899 0 0 1 -0.417,0.758 l -18.226,10.793 a 0.125,0.125 0 0 1 -0.063,0.018 0.126,0.126 0 0 1 -0.126,-0.126 V 8.979 a 0.9,0.9 0 0 0 -0.893,-0.887 h -15.147 a 0.9,0.9 0 0 0 -0.884,0.893 v 35.719 h 6.72 v 3.713 h -6.72 v 20.309 a 0.9,0.9 0 0 0 0.895,0.9 h 15.131 a 0.9,0.9 0 0 0 0.896,-0.89 l 0.001,-11.99 c 0,-0.319 0.167,-0.598 0.417,-0.758 l 6.223,-3.686 a 0.14,0.14 0 0 1 0.067,-0.018 c 0.061,0 0.108,0.038 0.133,0.093 l 0.005,0.01 c 3.657,7.971 11.096,17.852 27.856,18.172 0.482,0 1.067,-0.503 1.071,-0.976 L 200,53.747 c 0,-0.484 -0.554,-0.876 -1.034,-0.896 z"
       id="path6" />
  </g>
</svg>
